# xmcd CD database file
#
# Track frame offsets:
#	150
#	26281
#	41497
#	61456
#	84838
#	104830
#	121345
#	133978
#	160138
#	175291
#	187970
#	208991
#	224291
#	247861
#	264725
#
# Disc length: 3812 seconds
#
# Revision: 0
# Processed by: cddbd v1.5.1PL0 Copyright (c) Steve Scherf et al.
# Submitted via: CDex 1.51
#
DISCID=d70ee20f
DTITLE=Tena Palmer - North Atlantic Drift
DYEAR=2005
DGENRE=Jazz
TTITLE0=Dextrous Western Men
TTITLE1=My Buddy
TTITLE2=Sweet Kentucky Ham
TTITLE3=North Atlantic Drifter
TTITLE4=Small World
TTITLE5=Christmas in Antarctica
TTITLE6=Numbered Days
TTITLE7=You Win Again
TTITLE8=Retracto en Branco Preto
TTITLE9=Spring Chill
TTITLE10=Humpty Dumpty Heart
TTITLE11=You Hold on to Me
TTITLE12=The Briar and the Rose
TTITLE13=Guardian Angel
TTITLE14=Humpty Dumpty Heart (alt)
EXTD=YEAR: 2005
EXTT0=
EXTT1=
EXTT2=
EXTT3=
EXTT4=
EXTT5=
EXTT6=
EXTT7=
EXTT8=
EXTT9=
EXTT10=
EXTT11=
EXTT12=
EXTT13=
EXTT14=
PLAYORDER=
